<svg width="256" height="256" viewBox="0 0 256 256" fill="none" xmlns="http://www.w3.org/2000/svg">
  <!-- Background -->
  <rect width="256" height="256" rx="32" fill="url(#gradient)"/>
  
  <!-- Cash Register Icon -->
  <rect x="64" y="80" width="128" height="96" rx="8" fill="#ffffff" stroke="#2563eb" stroke-width="2"/>
  
  <!-- Screen -->
  <rect x="72" y="88" width="112" height="32" rx="4" fill="#1e293b"/>
  <text x="128" y="108" text-anchor="middle" fill="#10b981" font-family="monospace" font-size="14" font-weight="bold">₹1,234.50</text>
  
  <!-- Buttons -->
  <rect x="76" y="128" width="16" height="12" rx="2" fill="#e2e8f0"/>
  <rect x="96" y="128" width="16" height="12" rx="2" fill="#e2e8f0"/>
  <rect x="116" y="128" width="16" height="12" rx="2" fill="#e2e8f0"/>
  <rect x="136" y="128" width="16" height="12" rx="2" fill="#e2e8f0"/>
  
  <rect x="76" y="144" width="16" height="12" rx="2" fill="#e2e8f0"/>
  <rect x="96" y="144" width="16" height="12" rx="2" fill="#e2e8f0"/>
  <rect x="116" y="144" width="16" height="12" rx="2" fill="#e2e8f0"/>
  <rect x="136" y="144" width="16" height="12" rx="2" fill="#e2e8f0"/>
  
  <rect x="76" y="160" width="16" height="12" rx="2" fill="#e2e8f0"/>
  <rect x="96" y="160" width="16" height="12" rx="2" fill="#e2e8f0"/>
  <rect x="116" y="160" width="16" height="12" rx="2" fill="#e2e8f0"/>
  <rect x="136" y="160" width="36" height="12" rx="2" fill="#10b981"/>
  
  <!-- Shopping Cart -->
  <path d="M200 120h-20l-8-16h-24l8 16h20v40h-32l-4-8h-16l8 16h40v-40z" fill="#2563eb"/>
  <circle cx="196" cy="172" r="4" fill="#2563eb"/>
  <circle cx="212" cy="172" r="4" fill="#2563eb"/>
  
  <!-- Indian Rupee Symbol -->
  <text x="48" y="48" fill="#2563eb" font-family="serif" font-size="32" font-weight="bold">₹</text>
  
  <!-- Store Icon -->
  <rect x="180" y="64" width="48" height="32" rx="4" fill="#f59e0b"/>
  <rect x="184" y="68" width="40" height="24" rx="2" fill="#fbbf24"/>
  <rect x="196" y="76" width="16" height="8" rx="1" fill="#f59e0b"/>
  
  <!-- Gradient Definition -->
  <defs>
    <linearGradient id="gradient" x1="0%" y1="0%" x2="100%" y2="100%">
      <stop offset="0%" style="stop-color:#3b82f6;stop-opacity:1" />
      <stop offset="100%" style="stop-color:#1e40af;stop-opacity:1" />
    </linearGradient>
  </defs>
</svg>